HIERARCHY
ROOT Hips
{
	OFFSET 0.000000 0.000000 0.000000
	CHANNELS 6 Xposition Yposition Zposition Zrotation Yrotation Xrotation 
	JOINT LowerBack
	{
		OFFSET 0.000000 0.000000 0.000000
		CHANNELS 3 Zrotation Yrotation Xrotation
		JOINT Spine
		{
			OFFSET 0.028270 2.035590 -0.193380
			CHANNELS 3 Zrotation Yrotation Xrotation
			JOINT Spine1
			{
				OFFSET 0.056720 2.048850 -0.042750
				CHANNELS 3 Zrotation Yrotation Xrotation
				JOINT Neck
				{
					OFFSET 0.000000 0.000000 0.000000
					CHANNELS 3 Zrotation Yrotation Xrotation
					JOINT Neck1
					{
						OFFSET -0.054170 1.746240 0.172020
						CHANNELS 3 Zrotation Yrotation Xrotation
						JOINT Head
						{
							OFFSET 0.104070 1.761360 -0.123970
							CHANNELS 3 Zrotation Yrotation Xrotation
							End Site
							{
								OFFSET 0.000000 0.000000 0.000000
							}
						}
					}
				}
				JOINT LeftShoulder
				{
					OFFSET 0.000000 0.000000 0.000000
					CHANNELS 3 Zrotation Yrotation Xrotation
					JOINT LeftArm
					{
						OFFSET 3.362410 1.200890 -0.311210
						CHANNELS 3 Zrotation Yrotation Xrotation
						JOINT LeftForeArm
						{
							OFFSET 4.983000 -0.000000 -0.000000
							CHANNELS 3 Zrotation Yrotation Xrotation
							JOINT LeftHand
							{
								OFFSET 3.483560 -0.000000 -0.000000
								CHANNELS 3 Zrotation Yrotation Xrotation
								JOINT LeftFingerBase
								{
									OFFSET 0.000000 0.000000 0.000000
									CHANNELS 3 Zrotation Yrotation Xrotation
									JOINT LeftHandIndex1
									{
										OFFSET 0.715260 -0.000000 -0.000000
										CHANNELS 3 Zrotation Yrotation Xrotation
										End Site
										{
											OFFSET 0.000000 0.000000 0.000000
										}
									}
								}
								JOINT LThumb
								{
									OFFSET 0.000000 0.000000 0.000000
									CHANNELS 3 Zrotation Yrotation Xrotation
									End Site
									{
										OFFSET 0.000000 0.000000 0.000000
									}
								}
							}
						}
					}
				}
				JOINT RightShoulder
				{
					OFFSET 0.000000 0.000000 0.000000
					CHANNELS 3 Zrotation Yrotation Xrotation
					JOINT RightArm
					{
						OFFSET -3.136600 1.374050 -0.404650
						CHANNELS 3 Zrotation Yrotation Xrotation
						JOINT RightForeArm
						{
							OFFSET -5.241900 -0.000000 -0.000000
							CHANNELS 3 Zrotation Yrotation Xrotation
							JOINT RightHand
							{
								OFFSET -3.444170 -0.000000 -0.000000
								CHANNELS 3 Zrotation Yrotation Xrotation
								JOINT RightFingerBase
								{
									OFFSET 0.000000 0.000000 0.000000
									CHANNELS 3 Zrotation Yrotation Xrotation
									JOINT RightHandIndex1
									{
										OFFSET -0.622530 -0.000000 -0.000000
										CHANNELS 3 Zrotation Yrotation Xrotation
										End Site
										{
											OFFSET 0.000000 0.000000 0.000000
										}
									}
								}
								JOINT RThumb
								{
									OFFSET 0.000000 0.000000 0.000000
									CHANNELS 3 Zrotation Yrotation Xrotation
									End Site
									{
										OFFSET 0.000000 0.000000 0.000000
									}
								}
							}
						}
					}
				}
			}
		}
	}
}
}
MOTION
Frames: 6
Frame Time: 0.008333
4.990382 17.403930 1.073398 10.439385 -87.105219 11.667530 1.113462 -2.143470 5.044237 0.097146 -2.090554 -2.028409 -3.987196 -2.036253 -0.600732 8.211538 -9.061803 -0.808210 -3.516946 -0.314278 1.638077 0.000000 0.000000 0.000000 5.096467 -1.826162 -1.686881 -78.411671 -8.483991 27.107261 -179.596060 -71.631290 179.913313 9.356128 -0.898609 -0.122110 -0.234252 0.598514 -0.000000 0.000000 0.000000 0.000000 0.000000 0.000000 0.000000 10.182970 -8.753375 1.702820 56.829602 20.962122 41.678346 0.021776 88.515888 -0.017239 -6.409257 3.984472 -0.247972 0.221227 -0.329099 -0.000000 0.000000 0.000000 0.000000 0.000000 0.000000 0.000000 
4.984769 17.405771 1.062493 9.523009 -86.443262 12.243805 0.903727 -2.089937 5.000133 0.081009 -2.027798 -2.022769 -3.844975 -1.978109 -0.548252 8.036160 -8.884348 -0.768451 -3.489716 -0.313278 1.651129 0.000000 0.000000 0.000000 5.112300 -1.793150 -1.709028 -78.458052 -8.490883 27.413684 -179.617951 -71.629454 179.913497 9.321759 -0.890244 -0.120931 -0.230930 0.598766 -0.000000 0.000000 0.000000 0.000000 0.000000 0.000000 0.000000 10.040241 -8.547147 1.854420 55.523562 22.126435 42.203108 0.016422 88.619714 -0.015815 -6.170471 3.892168 -0.233490 0.220781 -0.324544 -0.000000 0.000000 0.000000 0.000000 0.000000 0.000000 0.000000 
4.978347 17.407443 1.051096 8.798340 -85.784079 12.607638 0.687629 -2.034387 4.945850 0.064668 -1.962691 -2.017328 -3.697343 -1.917594 -0.492317 7.845169 -8.709549 -0.734089 -3.457962 -0.312001 1.663087 0.000000 0.000000 0.000000 5.133249 -1.744836 -1.731305 -78.494207 -8.494948 27.731218 -179.641595 -71.625175 179.913708 9.285752 -0.881677 -0.119754 -0.227347 0.598920 -0.000000 0.000000 0.000000 0.000000 0.000000 0.000000 0.000000 9.865621 -8.334659 2.006677 54.161681 23.356745 42.661451 0.008332 88.768467 -0.014690 -5.969252 3.782703 -0.219909 0.220656 -0.320056 -0.000000 0.000000 0.000000 0.000000 0.000000 0.000000 0.000000 
4.970932 17.408982 1.039267 8.209205 -85.126409 12.819235 0.464694 -1.978525 4.879006 0.047912 -1.896967 -2.014095 -3.545340 -1.856579 -0.438957 7.640460 -8.526098 -0.699171 -3.423093 -0.310605 1.675688 0.000000 0.000000 0.000000 5.161382 -1.698228 -1.753131 -78.518400 -8.475316 28.045993 -179.668287 -71.609609 179.913920 9.250435 -0.874276 -0.118678 -0.223372 0.599009 -0.000000 0.000000 0.000000 0.000000 0.000000 0.000000 0.000000 9.665361 -8.106073 2.159537 52.730876 24.634536 43.033703 -0.002541 88.961788 -0.013859 -5.797387 3.645716 -0.206333 0.220568 -0.315490 -0.000000 0.000000 0.000000 0.000000 0.000000 0.000000 0.000000 
4.962585 17.410349 1.027041 7.727648 -84.470311 12.907038 0.235605 -1.922310 4.800810 0.030837 -1.830550 -2.012865 -3.389183 -1.794958 -0.388558 7.419125 -8.333198 -0.663656 -3.384147 -0.309027 1.688910 0.000000 0.000000 0.000000 5.193930 -1.648722 -1.773947 -78.528345 -8.440443 28.360671 -179.697380 -71.586307 179.914145 9.215140 -0.865722 -0.117404 -0.219077 0.598949 -0.000000 0.000000 0.000000 0.000000 0.000000 0.000000 0.000000 9.431747 -7.859610 2.310483 51.234027 25.947721 43.305374 -0.015115 89.183611 -0.013276 -5.648106 3.492736 -0.193061 0.220185 -0.311016 -0.000000 0.000000 0.000000 0.000000 0.000000 0.000000 0.000000 
4.953237 17.411542 1.014485 7.330755 -83.814281 12.897190 0.001241 -1.866533 4.709812 0.013398 -1.764237 -2.014917 -3.230037 -1.733571 -0.344950 7.181782 -8.124205 -0.624344 -3.341604 -0.307337 1.703682 0.000000 0.000000 0.000000 5.231424 -1.604522 -1.793402 -78.522752 -8.381636 28.668280 -179.729393 -71.552880 179.914379 9.180434 -0.855845 -0.116131 -0.214393 0.598711 -0.000000 0.000000 0.000000 0.000000 0.000000 0.000000 0.000000 9.166010 -7.589095 2.458293 49.664986 27.276600 43.462244 -0.028696 89.424564 -0.012875 -5.508429 3.330829 -0.180096 0.219092 -0.306771 -0.000000 0.000000 0.000000 0.000000 0.000000 0.000000 0.000000 
